<?xml version="1.0" encoding="UTF-8"?>
<svg id="Layer_2" data-name="Layer 2" xmlns="http://www.w3.org/2000/svg" viewBox="0 0 229.13 229.16">
  <defs>
    <style>
      .cls-1 {
        fill: #0555fe;
      }

      .cls-2 {
        fill: #bacef9;
      }

      .cls-3 {
        fill: #0152fe;
      }

      .cls-4 {
        fill: #6091fb;
      }

      .cls-5 {
        fill: #fdfdfe;
      }
    </style>
  </defs>
  <g id="App_Icon_Kit_A" data-name="App Icon Kit A">
    <g id="Notifications_and_Activity_-_Preview" data-name="Notifications and Activity - Preview">
      <g>
        <path class="cls-3" d="M178.23,0c2.66,0,5.31,0,7.97,0,1.2,.64,2.34,1.59,3.62,1.88,22.13,5.06,38.94,25.12,39.09,47.97,.29,43.14,.34,86.29-.02,129.43-.22,26.47-22.92,49.33-49.41,49.58-43.31,.41-86.62,.38-129.93,0-23.7-.21-43.51-17.82-47.68-41-.29-1.61-1.23-3.11-1.86-4.67,0-.66,0-1.33,0-1.99,.35-1.31,1-2.62,1-3.93,.05-41.52,.06-83.05,0-124.57,0-1.31-.66-2.62-1.01-3.92C0,48.12,0,47.46,0,46.8c.62-1.54,1.53-3.03,1.82-4.63C5.51,21.4,19.68,6.61,40.34,1.93c1.24-.28,2.31-1.27,3.47-1.93,2.99,0,5.97,0,8.96,0,1.72,.33,3.44,.95,5.17,.95,38.38,.06,76.75,.06,115.13,0,1.72,0,3.44-.62,5.16-.95Zm-62.68,195.43c44.38-.1,80.44-36.21,80.4-80.5-.04-44.3-36.15-80.34-80.53-80.37-44.66-.03-80.66,36.06-80.56,80.75,.1,44.33,36.25,80.22,80.69,80.12Z"/>
        <path class="cls-2" d="M0,48.79c.35,1.31,1,2.61,1.01,3.92,.05,41.52,.05,83.05,0,124.57,0,1.31-.65,2.62-1,3.93,0-44.14,0-88.28,0-132.42Z"/>
        <path class="cls-4" d="M178.23,0c-1.72,.33-3.44,.95-5.16,.95-38.38,.05-76.75,.05-115.13,0C56.21,.95,54.49,.33,52.77,0c41.82,0,83.64,0,125.45,0Z"/>
        <path class="cls-5" d="M115.55,195.43c-44.44,.1-80.59-35.79-80.69-80.12-.1-44.69,35.9-80.77,80.56-80.75,44.38,.02,80.49,36.06,80.53,80.37,.04,44.3-36.02,80.4-80.4,80.5Zm-26.08-80.35c0,6.13-.03,12.27,0,18.4,.04,5.79,1.62,7.51,7.3,7.54,12.43,.08,24.87,.08,37.3,0,5.39-.03,7.18-1.83,7.21-7.2,.07-12.6,.08-25.2,0-37.8-.03-5.14-1.81-6.99-6.86-7.03-12.76-.1-25.53-.05-38.29-.03-4.43,0-6.74,2.11-6.68,6.72,.08,6.46,.02,12.93,.02,19.4Z"/>
        <path class="cls-1" d="M89.47,115.08c0-6.47,.06-12.93-.02-19.4-.06-4.61,2.24-6.71,6.68-6.72,12.76-.02,25.53-.07,38.29,.03,5.05,.04,6.83,1.89,6.86,7.03,.08,12.6,.08,25.2,0,37.8-.03,5.37-1.82,7.17-7.21,7.2-12.43,.08-24.87,.08-37.3,0-5.68-.03-7.26-1.75-7.3-7.54-.04-6.13,0-12.27,0-18.4Z"/>
      </g>
    </g>
  </g>
</svg>