<?xml version="1.0" encoding="UTF-8"?>
<svg id="Layer_2" data-name="Layer 2" xmlns="http://www.w3.org/2000/svg" viewBox="0 0 181.88 160.78">
  <defs>
    <style>
      .cls-1 {
        fill: #e17525;
      }

      .cls-2 {
        fill: #d2bbad;
      }

      .cls-3 {
        fill: #191918;
      }

      .cls-4 {
        fill: #2e3745;
      }

      .cls-5 {
        fill: #ca6228;
      }

      .cls-6 {
        fill: #f38320;
      }

      .cls-7 {
        fill: #e17626;
      }

      .cls-8 {
        fill: #773f1b;
      }
    </style>
  </defs>
  <g id="App_Icon_Kit_A" data-name="App Icon Kit A">
    <g id="Notifications_and_Activity_-_Preview" data-name="Notifications and Activity - Preview">
      <g>
        <path class="cls-8" d="M1.03,22.04C3.53,14.88,6.03,7.72,8.73,0c1.51,.64,2.94,1.24,4.37,1.85,1.52,1.47,2.89,3.14,4.59,4.37,10.19,7.37,20.47,14.61,30.68,21.94,9.27,6.65,18.5,13.37,27.75,20.06,.3,1.5,.59,3,.89,4.5-1.21,.85-2.48,1.65-3.63,2.57-7.1,5.71-14.18,11.45-21.27,17.18-12.97,3.57-25.95,7.13-38.92,10.7-1.26-1.2-2.52-2.41-3.78-3.61-1.33-1.83-2.67-3.67-4.23-5.83,4.12-2.03,2.49-3.66-.16-5.18-3.38-2.71,.87-3.92,1.33-5.83-1.54-1.43-2.95-2.74-4.68-4.35,5.28-2.41,3.18-6.05,2.23-9.49-.44-2.28-1.05-4.54-1.3-6.84-.73-6.65-4.33-13.08-1.56-20Z"/>
        <path class="cls-7" d="M76.12,48.21c-9.25-6.69-18.48-13.4-27.75-20.06-10.21-7.33-20.49-14.57-30.68-21.94-1.7-1.23-3.07-2.9-4.59-4.37,1.3,.27,2.61,.55,3.91,.82,6.48,2.28,12.96,4.55,19.44,6.83,5.15,1.9,10.3,3.79,15.45,5.68,5.09,2.06,10.19,4.11,15.28,6.17,.34,1.58,.53,3.21,1.05,4.72,2.58,7.4,5.25,14.76,7.88,22.14Z"/>
        <path class="cls-6" d="M76.12,48.21c-2.64-7.38-5.3-14.74-7.88-22.14-.53-1.51-.71-3.14-1.05-4.72,2.34-.12,4.67-.24,7.01-.36,13.67,.1,27.33,.21,41,.31-.72,2.36-1.43,4.71-2.15,7.07-1.92,6.28-3.85,12.55-5.78,18.83-.63,1.91-1.25,3.83-1.88,5.74-.39,.86-1.08,1.71-1.13,2.59-.71,11.52-1.34,23.05-1.98,34.58-.55,6.67,.2,13.09,3.77,18.94,1.94,.13,3.97,.69,5.8,.31,4.13-.88,8.17-2.23,12.24-3.39,.37,.04,.75,.07,1.12,.11,.21,3.7,.42,7.39,.63,11.09,.32,.15,.64,.3,.95,.45,3.47-7.86,6.93-15.71,10.4-23.57,0,0,0,0,0,0,.65-.68,1.31-1.36,1.96-2.04,.03-1.01,.05-2.02,.08-3.02-.67-1.63-1.17-3.37-2.05-4.87-2.24-3.82-4.66-7.55-7.01-11.31,12.93,3.45,25.87,6.89,38.8,10.34,3.58,11.29,7.18,22.57,10.7,33.87,.52,1.66,.66,3.44,.97,5.17-11.49-.04-22.99-.08-34.48-.11-7.32,.33-14.64,.66-21.96,.99-.54,.36-1.09,.71-1.61,1.1-6.01,4.39-12.01,8.78-18.01,13.17-1.52-.44-3.04-1.21-4.57-1.25-5.94-.15-11.9-.14-17.84,0-1.55,.04-3.08,.75-4.61,1.15-1.15-.58-2.4-1.02-3.42-1.76-5.66-4.1-11.27-8.28-16.89-12.44-7.33-.31-14.67-.62-22-.93-11.26-.01-22.53-.02-33.79-.03,.64-2.98,1.28-5.96,1.92-8.94,3.27-9.98,6.54-19.97,9.82-29.95,12.97-3.57,25.95-7.13,38.92-10.7-3.31,5.52-6.61,11.05-9.92,16.57,.68,1.66,1.36,3.32,2.04,4.98,3.52,7.51,7.05,15.03,11.05,23.55,.94-4.91,1.6-8.33,2.26-11.74,5.89,1.4,11.78,2.81,17.66,4.21,1.62,3.94,3.24,7.88,5.01,12.19,0-3.73,.12-7.17-.03-10.6-.21-4.87-.62-9.72-.94-14.58,0-2.01,0-4.02-.01-6.03-.74-12.77-1.47-25.54-2.21-38.31-.3-1.5-.59-3-.89-4.5Z"/>
        <path class="cls-8" d="M171.12,.97c.97,.24,2.45,.17,2.83,.78,.99,1.61,1.5,3.51,2.21,5.3,.73,2.52,1.22,5.15,2.24,7.55,3.24,7.62,4.82,15.32,2.09,23.44-.97,4.32-2.22,8.61-2.79,12.99-.31,2.37,.54,4.89,.87,7.34,.48,.04,.97,.07,1.45,.11-1.31,1.37-2.61,2.74-4.19,4.4,.8,.73,1.59,1.45,2.39,2.17-1.05,1.99-2.11,3.98-3.38,6.4,3,2.08,.9,4.18-1.12,6.41-1.43,1.57-2.65,3.33-3.96,5.01-.29,0-.54,.09-.77,.28-12.93-3.44-25.87-6.89-38.8-10.33-1.06-.78-2.16-1.53-3.19-2.36-7.21-5.82-14.4-11.67-21.59-17.5,.63-1.91,1.25-3.83,1.88-5.74,.99-.56,2.05-1.04,2.97-1.71,13.43-9.66,26.89-19.26,40.22-29.04,6.36-4.67,12.47-9.68,18.69-14.53,0,0-.07,.04-.06,.04,.68-.33,1.35-.66,2.03-.99Z"/>
        <path class="cls-7" d="M146.17,122.06c11.49,.04,22.99,.08,34.48,.11-.59,2.78-1.19,5.56-1.79,8.34-2.67,8.68-5.5,17.32-7.94,26.07-.93,3.35-2.26,4.87-5.73,3.52-5.95-1.54-11.91-3.08-17.86-4.62-4.69-1.27-9.38-2.54-14.06-3.81-1.61-.26-3.22-.52-4.83-.78-.03-.64-.07-1.28-.1-1.92,5.94-8.97,11.89-17.94,17.83-26.91Z"/>
        <path class="cls-7" d="M1.45,122.04c11.26,.01,22.53,.02,33.79,.03,6.02,9.04,12.04,18.09,18.07,27.13-.02,.28-.03,.57-.03,.85-2.36,.73-4.73,1.46-7.09,2.19-8.33,2.25-16.66,4.5-25,6.76-2.74,.57-5.48,1.14-8.51,1.78-2.56-8.31-5.09-16.53-7.62-24.75-1.2-4.67-2.41-9.33-3.61-14Z"/>
        <path class="cls-1" d="M77.01,52.7c.74,12.77,1.47,25.54,2.21,38.31-12.34-.66-24.69-1.32-37.03-1.99,3.31-5.53,6.61-11.05,9.92-16.57,7.09-5.73,14.17-11.47,21.27-17.18,1.15-.93,2.42-1.72,3.63-2.57Z"/>
        <path class="cls-1" d="M105.39,52.94c7.2,5.84,14.39,11.68,21.59,17.5,1.03,.83,2.13,1.58,3.19,2.36,2.35,3.76,4.77,7.48,7.01,11.31,.88,1.51,1.38,3.24,2.05,4.87-12.32,.38-24.64,.75-36.96,1.13,.65-11.53,1.27-23.06,1.98-34.58,.05-.88,.74-1.73,1.13-2.59Z"/>
        <path class="cls-7" d="M169.16,1.91c-6.22,4.86-12.33,9.87-18.69,14.53-13.33,9.78-26.8,19.39-40.22,29.04-.92,.66-1.98,1.14-2.97,1.71,1.93-6.28,3.85-12.55,5.78-18.83,.72-2.35,1.43-4.71,2.15-7.07,17.99-6.46,35.97-12.92,53.96-19.39Z"/>
        <path class="cls-3" d="M106.12,153.88c-1.85-.54-3.7-1.55-5.55-1.55-8.41,0-16.83,.29-25.24,.48,.61-4.92,1.21-9.84,1.82-14.76,.23-.23,.37-.51,.41-.84,1.54-.4,3.07-1.12,4.61-1.15,5.95-.13,11.9-.14,17.84,0,1.53,.04,3.05,.82,4.58,1.25-.01,.32,.12,.56,.4,.72,.38,5.28,.75,10.56,1.13,15.85Z"/>
        <path class="cls-5" d="M102.27,90.11c12.32-.38,24.64-.75,36.96-1.13-.03,1.01-.05,2.02-.08,3.02-.65,.68-1.31,1.36-1.96,2.04,0,0,0,0,0,0-3.99,4.01-7.99,8.02-11.98,12.03-.37-.04-.75-.07-1.12-.11-4.07-2.45-8.14-4.9-12.27-7.39-2.28,4.14-4.03,7.31-5.77,10.48-3.57-5.85-4.32-12.27-3.77-18.94Z"/>
        <path class="cls-5" d="M42.19,89.03c12.34,.66,24.69,1.32,37.03,1.99,0,2.01,0,4.02,.01,6.03-.38,1.21-.72,2.43-1.13,3.62-.86,2.48-1.75,4.94-2.64,7.41-1.56-2.9-3.11-5.8-4.92-9.16-4.42,2.12-8.72,4.18-13.02,6.24-1.49-1.25-2.97-2.5-4.46-3.74-2.95-2.47-5.89-4.93-8.84-7.4-.68-1.66-1.36-3.32-2.04-4.98Z"/>
        <path class="cls-5" d="M128.34,148.97l-.45-.02s-.45,0-.46,0c-.09-.29-.18-.58-.25-.88-.99-8.34-1.97-16.68-2.96-25.03,7.32-.33,14.64-.66,21.96-.99-5.94,8.97-11.89,17.94-17.83,26.91Z"/>
        <path class="cls-5" d="M55.2,147.85c-.63,.45-1.26,.9-1.9,1.36-6.02-9.04-12.04-18.09-18.06-27.13,7.33,.31,14.67,.62,22,.93-.68,8.28-1.36,16.56-2.04,24.84Z"/>
        <path class="cls-7" d="M55.2,147.85c.68-8.28,1.36-16.56,2.04-24.84,5.63,4.15,11.23,8.33,16.89,12.44,1.03,.74,2.27,1.18,3.42,1.76-.04,.33-.18,.6-.41,.84-7.34,3.44-14.67,6.88-22.01,10.32,.05-.17,.07-.34,.07-.51Z"/>
        <path class="cls-7" d="M124.22,123.05c.99,8.34,1.97,16.68,2.96,25.03-7.39-3.35-14.79-6.7-22.18-10.05-.28-.16-.41-.4-.4-.72,6-4.39,12.01-8.78,18.01-13.17,.52-.38,1.07-.73,1.61-1.1Z"/>
        <path class="cls-4" d="M57.53,105.15c4.3-2.06,8.6-4.12,13.02-6.24,1.8,3.36,3.36,6.26,4.92,9.16-.09,.65-.18,1.31-.27,1.96-5.89-1.4-11.78-2.81-17.66-4.21,0-.22,0-.45,0-.67Z"/>
        <path class="cls-4" d="M106.05,109.05c1.75-3.17,3.49-6.34,5.77-10.48,4.14,2.49,8.2,4.94,12.27,7.39-4.07,1.16-8.11,2.51-12.24,3.39-1.83,.39-3.86-.17-5.8-.31Z"/>
        <path class="cls-1" d="M57.53,105.15c0,.22,0,.45,0,.67-.66,3.41-1.31,6.83-2.26,11.74-4-8.52-7.52-16.04-11.05-23.55,2.95,2.47,5.9,4.93,8.84,7.4,1.49,1.25,2.97,2.49,4.46,3.74Z"/>
        <path class="cls-1" d="M125.21,106.07c3.99-4.01,7.99-8.02,11.98-12.03-3.47,7.86-6.93,15.71-10.4,23.57-.32-.15-.64-.3-.95-.45-.21-3.7-.42-7.39-.63-11.09Z"/>
        <path class="cls-1" d="M75.19,110.04c.09-.65,.18-1.31,.27-1.96,.88-2.47,1.78-4.94,2.64-7.41,.41-1.19,.76-2.41,1.13-3.62,.32,4.86,.73,9.72,.95,14.58,.15,3.43,.03,6.87,.03,10.6-1.77-4.31-3.39-8.25-5.01-12.19Z"/>
        <path class="cls-2" d="M104.99,138.04c7.39,3.35,14.79,6.7,22.18,10.05,.08,.29,.16,.59,.25,.88-6.73,3.34-13.47,6.68-20.99,10.41-.14-2.37-.23-3.92-.32-5.48-.38-5.28-.75-10.56-1.13-15.85Z"/>
        <path class="cls-2" d="M55.14,148.37c7.34-3.44,14.67-6.88,22.01-10.32-.61,4.92-1.21,9.84-1.82,14.76-.15,1.59-.3,3.19-.52,5.4-6.83-2.84-13.23-5.51-19.62-8.17-.02-.56-.04-1.12-.06-1.68Z"/>
      </g>
    </g>
  </g>
</svg>