<?xml version="1.0" encoding="UTF-8"?>
<svg id="Layer_2" data-name="Layer 2" xmlns="http://www.w3.org/2000/svg" viewBox="0 0 230.56 229.61">
  <defs>
    <style>
      .cls-1 {
        fill: #0099fe;
      }

      .cls-2 {
        fill: #fdfdfe;
      }

      .cls-3 {
        fill: #fcfdfe;
      }
    </style>
  </defs>
  <g id="App_Icon_Kit_A" data-name="App Icon Kit A">
    <g id="Notifications_and_Activity_-_Preview" data-name="Notifications and Activity - Preview">
      <g>
        <path class="cls-1" d="M230.56,37.22V192.83c-.16,.47-.38,.92-.47,1.4-3.62,17.8-14.14,29.23-31.63,34.19-1.68,.48-3.42,.79-5.12,1.18H36.78c-.47-.16-.92-.39-1.4-.47C14.78,225.64,0,208.21,0,187.39c0-48.64,0-97.28,0-145.92C0,19.05,19.05,0,41.47,0,90.5,0,139.52,0,188.55,0c18.13,0,34.19,11.6,39.87,28.87,.89,2.72,1.44,5.56,2.14,8.35ZM82.24,136.19c-.95-.88-1.84-1.67-2.68-2.49-8.98-8.77-17.94-17.56-26.92-26.33-2.03-1.99-3.62-2.01-5.62-.09-2.69,2.59-5.37,5.19-8.03,7.81-2.45,2.41-2.48,3.81-.03,6.21,8.04,7.91,16.1,15.81,24.15,23.71,5.39,5.28,10.77,10.57,16.19,15.83,2.21,2.14,3.79,2.09,6.02,.04,1.47-1.36,3.02-2.63,4.46-4.03,6.96-6.77,13.89-13.58,20.84-20.36,1.53-1.49,3.1-2.93,4.68-4.42,.53,.48,.87,.77,1.19,1.08,9.29,9.09,18.58,18.19,27.87,27.28,2.72,2.66,4.14,2.7,6.82,.08,8.12-7.94,16.19-15.93,24.33-23.85,5.61-5.46,11.31-10.82,16.97-16.23,1.17-1.12,1.16-3.33-.04-4.45-2.99-2.79-6.02-5.55-8.98-8.36-2.44-2.32-3.82-2.35-6.26,.04-7.21,7.06-14.41,14.12-21.63,21.17-2.54,2.48-5.11,4.92-7.73,7.44-.86-.77-1.48-1.29-2.06-1.85-9.08-8.88-18.16-17.77-27.23-26.65-2.57-2.51-3.91-2.53-6.42-.07-7.26,7.11-14.49,14.25-21.8,21.31-2.55,2.46-5.29,4.73-8.07,7.2Zm83.2-45.05c-.6-1.04-1.01-1.98-1.63-2.75-.7-.86-1.61-1.56-2.41-2.34-19.8-19.53-49.31-24.31-75.34-12.27-7.71,3.56-14.15,8.86-20.06,14.86-1.83,1.86-1.83,3.63,.02,5.46,2.98,2.94,5.98,5.86,8.97,8.79,2,1.96,2.45,1.85,4.62-.04,3.46-3.02,6.81-6.28,10.64-8.77,12.03-7.81,25.05-9.52,38.81-5.39,8.48,2.55,15.35,7.55,21.27,13.97,1.46,1.59,2.71,1.79,4.3,.17,3.03-3.1,6.18-6.07,9.22-9.16,.64-.65,1-1.56,1.59-2.51Z"/>
        <path class="cls-2" d="M82.24,136.19c2.78-2.47,5.52-4.73,8.07-7.2,7.31-7.06,14.54-14.2,21.8-21.31,2.51-2.46,3.85-2.44,6.42,.07,9.08,8.88,18.15,17.77,27.23,26.65,.58,.57,1.21,1.09,2.06,1.85,2.62-2.52,5.19-4.96,7.73-7.44,7.22-7.05,14.42-14.11,21.63-21.17,2.44-2.39,3.82-2.37,6.26-.04,2.96,2.82,5.99,5.57,8.98,8.36,1.2,1.12,1.21,3.33,.04,4.45-5.66,5.4-11.36,10.77-16.97,16.23-8.14,7.92-16.21,15.9-24.33,23.85-2.68,2.62-4.1,2.58-6.82-.08-9.29-9.1-18.58-18.19-27.87-27.28-.32-.31-.66-.6-1.19-1.08-1.58,1.49-3.15,2.93-4.68,4.42-6.95,6.78-13.88,13.59-20.84,20.36-1.43,1.4-2.98,2.67-4.46,4.03-2.23,2.05-3.81,2.1-6.02-.04-5.42-5.25-10.8-10.54-16.19-15.83-8.06-7.9-16.11-15.79-24.15-23.71-2.44-2.4-2.42-3.81,.03-6.21,2.66-2.62,5.34-5.22,8.03-7.81,2-1.92,3.58-1.9,5.62,.09,8.98,8.77,17.95,17.56,26.92,26.33,.84,.83,1.73,1.61,2.68,2.49Z"/>
        <path class="cls-3" d="M165.44,91.14c-.59,.95-.95,1.86-1.59,2.51-3.04,3.09-6.2,6.06-9.22,9.16-1.59,1.63-2.84,1.42-4.3-.17-5.92-6.42-12.79-11.43-21.27-13.97-13.76-4.13-26.78-2.43-38.81,5.39-3.83,2.49-7.18,5.74-10.64,8.77-2.17,1.9-2.62,2-4.62,.04-2.99-2.93-5.99-5.85-8.97-8.79-1.84-1.82-1.85-3.59-.02-5.46,5.91-6,12.35-11.3,20.06-14.86,26.03-12.04,55.54-7.26,75.34,12.27,.8,.79,1.71,1.48,2.41,2.34,.62,.77,1.03,1.71,1.63,2.75Z"/>
      </g>
    </g>
  </g>
</svg>